<svg id="Layer_1" data-name="Layer 1" xmlns="http://www.w3.org/2000/svg" width="485.82" height="76.71" viewBox="0 0 485.82 76.71">
  <defs>
    <style>
      .cls-1 {
        fill: #1d89ca;
      }

      .cls-1, .cls-2 {
        isolation: isolate;
      }

      .cls-2 {
        fill: #232021;
      }
    </style>
  </defs>
  <title>ccavenue-logo-freelogovectors.net</title>
  <g>
    <path class="cls-1" d="M66.08,273.35c.14,4.07.28,8,.56,12.06-2.24.56-4.48,1.12-6.72,1.54a66.91,66.91,0,0,1-14,1c-7.29-.14-14.44-1.4-21-4.91-10.1-5.46-16.26-13.87-18.09-25.37a45,45,0,0,1,1.55-21.59c3.78-10.79,11.35-17.8,22-21.73a45.06,45.06,0,0,1,15-2.66c6.3-.14,12.61.14,18.78,2,.84.14,1.82.56,2.81.84-.14,3.93-.43,7.85-.57,11.78a6.35,6.35,0,0,1-1.12-.28,40.13,40.13,0,0,0-17.66-2.67c-7,.42-13.32,2.67-18.23,7.71a22.55,22.55,0,0,0-6,11.22,31.77,31.77,0,0,0,.28,16.26c2.66,9.25,8.83,14.58,18.08,16.82a41.86,41.86,0,0,0,23.13-1.4C65,273.63,65.38,273.49,66.08,273.35Z" transform="translate(-6.15 -211.52)"/>
    <path class="cls-1" d="M134.5,214.47c-.14,3.93-.56,7.85-.7,11.64-1.69-.56-3.09-1-4.63-1.41-7.43-2.1-14.86-2.52-22.15-.14-9.25,3.09-14.72,9.54-16.4,19.07-1,5.89-.84,11.78,1.54,17.38,3.08,7.57,9.11,12.2,17,14a40.8,40.8,0,0,0,22.85-1.4,4.51,4.51,0,0,0,1.27-.42c.7,3.93.42,8,.7,12.06-2.67.56-5.33,1.26-8,1.68a57.07,57.07,0,0,1-12.9.7c-6.87-.28-13.6-1.4-19.77-4.49-10.79-5.32-17.1-13.87-19.06-25.79a43.6,43.6,0,0,1,1.4-20.89c3.64-10.51,11.07-17.8,21.59-21.87a45.64,45.64,0,0,1,14.3-2.94,59.42,59.42,0,0,1,19.9,1.82A20,20,0,0,0,134.5,214.47Z" transform="translate(-6.15 -211.52)"/>
    <path class="cls-2" d="M479.93,261.44H442.78c.14,7.85,4.49,16.26,15,17.52a30,30,0,0,0,16.4-2.8,8.14,8.14,0,0,0,1.54-.71v8.42a26.31,26.31,0,0,1-6.44,2,42.16,42.16,0,0,1-13.88.7c-10.24-1.12-17.11-6.73-20.33-16.54-2.66-8.27-2.66-16.55.84-24.68,4.07-9,11.22-13.74,21.17-14A22.67,22.67,0,0,1,468,233.4c5.47,2.66,8.7,7.15,10.52,12.89a25.52,25.52,0,0,1,1.4,8.56C480.07,257.09,479.93,259.19,479.93,261.44Zm-36.87-6.73h27.62a21.77,21.77,0,0,0-2.53-10c-4.34-8.13-15-7.85-19.9-2.94C444.88,245.59,443.62,249.94,443.06,254.71Z" transform="translate(-6.15 -211.52)"/>
    <path class="cls-2" d="M378.57,233.4h9.67v29.3a25.23,25.23,0,0,0,1,7.85c1.4,5,4.76,7.57,10.09,7.71q10.31.21,13.46-10.1a31.26,31.26,0,0,0,1.26-9.53V233.4h9.67v52.43h-8.83v-9.67c-.14,0-.14,0-.14-.15-.14.15-.28.57-.56.71-4.49,7.57-11.21,10.23-19.77,9.53a15.26,15.26,0,0,1-8.83-3.09,15.81,15.81,0,0,1-6-10,36.51,36.51,0,0,1-1-7.85c-.14-10.51,0-21.17-.14-31.82C378.43,233.82,378.43,233.68,378.57,233.4Z" transform="translate(-6.15 -211.52)"/>
    <path class="cls-2" d="M369.32,285.41h-9.67V256a27,27,0,0,0-1.13-8.83c-1.54-4.77-4.76-7.15-9.67-7.43-6.73-.29-11.63,3.22-13.74,9.95a27.81,27.81,0,0,0-1.26,9v26.64h-9.67V232.56H333v9.67c.28-.56.56-.84.7-1.12,4.77-7.71,11.64-10.52,20.47-9.68,6.17.56,10.51,3.79,13,9.54a25.5,25.5,0,0,1,1.82,7.15c.14,2,.28,4.06.28,6.17v31.12Z" transform="translate(-6.15 -211.52)"/>
    <path class="cls-2" d="M169.41,252c4.76-12.62,9.67-25.23,14.44-38h11.91c9,24.11,18.09,48.23,27.06,72.48H212.3c-7.57-21.17-15-42.34-22.57-63.51-.14,0-.14,0-.28.14-3.5,9.68-7.15,19.35-10.79,28.88Z" transform="translate(-6.15 -211.52)"/>
    <path class="cls-2" d="M246.23,286.67H234.87c-6-17.38-12.05-34.91-18.22-52.43h10.51c4.63,14.44,9.26,28.88,13.74,43.46H241c4.77-14.58,9.54-28.88,14.3-43.46H265C258.71,251.76,252.54,269.15,246.23,286.67Z" transform="translate(-6.15 -211.52)"/>
    <path class="cls-2" d="M169.41,252H193.1c1.82,5.33,3.5,10.52,5.18,16.12-1.82-.42-3.5-.84-5-1.12-5.89-1.4-11.78-2.94-17.81-4.34-.28-.14-.56,0-.84-.14s-.14-.14-.28-.14c-2.66-.56-5.47-1.41-8.27-2-8.27-2-16.54-4.06-24.81-6-2.11-.57-4.21-1-6.17-1.41-.14-.14-.42-.14-.56-.28.42-.56,1-.42,1.4-.42h27.2C165.2,252.18,167.3,252.18,169.41,252Z" transform="translate(-6.15 -211.52)"/>
    <path class="cls-2" d="M166.32,260.45c2.66.56,5.47,1.41,8.27,2,.14,0,.14.14.28.14-1.82,4.76-3.5,9.67-5.32,14.44-1.13,3.22-2.25,6.3-3.51,9.67h-9.81c1-2.66,2-5.19,3.08-7.85C161.55,272.65,164.08,266.62,166.32,260.45Z" transform="translate(-6.15 -211.52)"/>
    <path class="cls-2" d="M486.89,242a5.1,5.1,0,0,1-5.14-5.08,5,5,0,0,1,5.08-5.08,5.08,5.08,0,1,1,.06,10.16Zm-.06-9.35a4.25,4.25,0,1,0,4.27,4.27A4.27,4.27,0,0,0,486.83,232.6Z" transform="translate(-6.15 -211.52)"/>
    <path class="cls-2" d="M489.2,239.64h-1.1c-.29-.46-.57-.92-.86-1.44a1.51,1.51,0,0,0-1.79-.81v2.25h-.87v-5.48c1,.06,2,.06,2.95.12a1.41,1.41,0,0,1,1.27,1.27,1.5,1.5,0,0,1-.93,1.5,2.07,2.07,0,0,0-.52.17A7.48,7.48,0,0,1,489.2,239.64Zm-3.64-3c.64-.06,1.27-.06,1.85-.17a.65.65,0,0,0,.52-.75.79.79,0,0,0-.58-.75,6,6,0,0,0-1.79-.06Z" transform="translate(-6.15 -211.52)"/>
    <path class="cls-2" d="M314.51,262.84H277.36c.14,7.86,4.49,16.27,15,17.53a30,30,0,0,0,16.41-2.81,7.5,7.5,0,0,0,1.54-.7v8.42a26.52,26.52,0,0,1-6.45,2,42.15,42.15,0,0,1-13.88.7c-10.23-1.12-17.1-6.73-20.33-16.54-2.66-8.28-2.66-16.55.84-24.68,4.07-9,11.22-13.74,21.17-14a22.71,22.71,0,0,1,10.94,2.11c5.46,2.66,8.69,7.15,10.51,12.89a25.52,25.52,0,0,1,1.4,8.56C314.65,258.5,314.51,260.6,314.51,262.84Zm-36.87-6.72h27.62a21.88,21.88,0,0,0-2.52-10c-4.35-8.13-15-7.85-19.91-2.94C279.47,247,278.2,251.35,277.64,256.12Z" transform="translate(-6.15 -211.52)"/>
  </g>
</svg>
